<svg xmlns="http://www.w3.org/2000/svg" viewBox="0 0 256 256" data-duration="2.4">
<defs><path id="p0" d="M119 147 L125 144 L128 146 L135 145 L156.1 164.4 L160.1 165.9 L154.6 167.4 L169.8 179.1 L173.8 180.6 L168.3 182.1 L181 192 Q194 189 200 196 Q203 201 199 205 Q198 199 192 197 Q187 197 183 199 L179.3 201.3 L176.9 197.6 L173.6 202.3 L170.1 197 L167.7 195.7 L164.8 201.3 L162.2 196.8 L159.5 199.9 L155.8 196.4 L152.3 201.1 L148.8 195.4 L146.1 194.4 L143.5 199.5 L141.1 195.5 L138 200 L136.1 195.1 L132.6 200.7 L130.7 194.8 L124.7 192 L118.7 195 L115.7 201.2 L113.6 195.7 L110.1 199.5 L107.6 195.9 L103.2 202.8 L100.1 195.7 L97.6 195.1 L94.5 203.2 L92.5 196.2 L88.1 200.3 L84.4 197.3 L80.9 203.3 L77.5 197.8 L74.6 196.9 L74 198 Q65 199 58 193 Q54 188 58 182 Q59 188 63 190 Q68 192 73 192 L88.2 179.4 L82.7 177.9 L86.7 176.4 L102.6 164.2 L97.1 162.7 L101.1 161.2 Z" fill-rule="evenodd"/><path id="p1" d="M122 119 L127 116 L130 118 L136 117 L154.4 136 L158.4 137.5 L152.9 139 L166.3 150.4 L170.3 151.9 L164.8 153.4 L176 163 Q187 164 191 156 Q193 150 188 149 Q190 154 186 160 Q183 166 177 169 L174.3 173.2 L170.7 167.3 L167.8 172.7 L165.4 167.1 L161.7 165.5 L159.5 172.6 L156.4 166 L152.5 169.9 L149.8 165.8 L146.2 171.7 L142.7 165.3 L136.7 162.3 L130.7 165.3 L128.8 168.9 L125.3 165.1 L122.5 171.9 L119.9 164.6 L117.7 164.3 L114.4 170.8 L110.7 165.7 L107.4 171.7 L104.3 165.9 L100.9 173.3 L98.2 166.3 L95.5 165.8 L92.2 172.8 L90.4 167.1 L86.7 172.1 L84.2 167.3 L80.9 167.2 L83 169 L75 169 L73 164 L82 163 L95.4 150.7 L89.9 149.2 L93.9 147.7 L107.9 135.8 L102.4 134.3 L106.4 132.8 Z M104.5 146 Q109 141.5 116.5 141 Q112.5 146.5 104.5 146 Z M109 153 Q114 148 122 147.5 Q117.5 153.5 109 153 Z" fill-rule="evenodd"/><path id="p2" d="M126 90 L130 87 L133 89 L138 88 L154.1 106.6 L158.1 108.1 L152.6 109.6 L164.5 120.7 L168.5 122.2 L163 123.7 L173 133 Q182 133 186 140 Q187 144 184 145 Q182 140 174 139 L169.8 142.2 L166.3 137.3 L163.5 142.1 L160.5 137.4 L157.2 142.4 L152.2 136.5 L149.7 135.4 L145.8 139.9 L143.5 136.1 L140.1 141.1 L138.2 136.2 L135.3 141.7 L132.3 135.8 L126.3 133 L120.3 136 L116.3 141.8 L113.6 136.2 L110.4 142.6 L107.7 136.4 L104.2 136.1 L99.3 141.8 L96.3 137.6 L92.8 136.9 L92 139 Q86 139 83 134 Q82 129 85 128 Q87 132 91 133 L102.9 121 L97.4 119.5 L101.4 118 L113.9 106.5 L108.4 105 L112.4 103.5 Z M147 110 Q143 115 143.5 119 Q144.5 123 148.5 122.5 Q152 121.5 151.5 117.5 Q151 113.5 147 110 Z" fill-rule="evenodd"/><path id="p3" d="M130 61 L133 58 L136 60 L140 59 L153.3 77.2 L157.3 78.7 L151.8 80.2 L161.9 91 L165.9 92.5 L160.4 94 L169 103 L175 102 L177 107 L170 109 L164.9 113.9 L161.6 108 L156.6 113.3 L153.3 106.7 L149.9 105.4 L147.7 111.2 L144.6 106.5 L140.8 110.7 L137.8 106.3 L131.8 103 L125.8 106 L123.6 110.3 L120.3 106.5 L116 113 L113.2 106.3 L109.7 106.3 L105.9 113.8 L103.8 107.3 L100.9 107.1 L102 109 Q92 112 86 118 L82 122 Q89 108 101 103 L111.1 91.4 L105.6 89.9 L109.6 88.4 L120.2 77.2 L114.7 75.7 L118.7 74.2 Z M130 80 C124 80 123 87 127.5 88.5 C130.5 89.5 132.5 86.5 130.5 84.5 C133.5 85.5 134 90.5 128.5 93.5 C136.5 92.5 137 80 130 80 Z" fill-rule="evenodd"/><path id="p4" d="M139 24 C139 15 144 8 152 7 C148 11 146 16 146 23 L146.5 31 L150 34 L147 36 L149.5 45 L154 48 L150 50 L153 58 L157 61 Q165 60 169 54 Q171 50 168 48 Q171 49 172 53 Q171 62 158 67 L155.5 71.5 L151 67 L148.5 73 L143.5 69.5 L141 74 L136 69 L132 73.5 L128.5 68 L124 72 L121 68 L114.5 69 L113 64 L119 63 L123 57 L126.5 55 L124.5 52 L129 44 L132.5 42 L130.5 39.5 L134 32 L137.5 30 Z" fill-rule="evenodd"/><path id="pt" d="M99 233 Q106 231 108.5 226 L110 223.5 L112.5 219.5 Q108 216.5 103.5 210 L106.5 209.5 Q110.5 214 115.5 215.5 L114.5 218 L120.5 212 L120 205 L117.5 198 L116.5 190 L118.5 176 L121 160 L128 152 L134 154 L135 160 L134.5 176 L133.5 190 L135.5 198 L139 205 L139.5 212 L133.5 218 L130 224 Q131 229 144 231 L151 234 L128 233.5 L120 235 L101 235 Z M128.5 202 Q133 203 132.5 208 Q132 213 128 213 Q124 212.5 124.5 207.5 Q125 202.5 128.5 202 Z" fill-rule="evenodd"/><mask id="m0" maskUnits="userSpaceOnUse" x="0" y="0" width="256" height="256"><use href="#p0" fill="#fff" stroke="#000" stroke-width="3" stroke-linejoin="round"/><use href="#p1" fill="#000"/><use href="#p2" fill="#000"/><use href="#p3" fill="#000"/><use href="#p4" fill="#000"/></mask><clipPath id="c0"><use href="#p0" transform="translate(-3.5 1)"/></clipPath><mask id="m1" maskUnits="userSpaceOnUse" x="0" y="0" width="256" height="256"><use href="#p1" fill="#fff" stroke="#000" stroke-width="3" stroke-linejoin="round"/><use href="#p2" fill="#000"/><use href="#p3" fill="#000"/><use href="#p4" fill="#000"/></mask><clipPath id="c1"><use href="#p1" transform="translate(-3.5 1)"/></clipPath><mask id="m2" maskUnits="userSpaceOnUse" x="0" y="0" width="256" height="256"><use href="#p2" fill="#fff" stroke="#000" stroke-width="3" stroke-linejoin="round"/><use href="#p3" fill="#000"/><use href="#p4" fill="#000"/></mask><clipPath id="c2"><use href="#p2" transform="translate(-3.5 1)"/></clipPath><mask id="m3" maskUnits="userSpaceOnUse" x="0" y="0" width="256" height="256"><use href="#p3" fill="#fff" stroke="#000" stroke-width="3" stroke-linejoin="round"/><use href="#p4" fill="#000"/></mask><clipPath id="c3"><use href="#p3" transform="translate(-3.5 1)"/></clipPath><mask id="m4" maskUnits="userSpaceOnUse" x="0" y="0" width="256" height="256"><use href="#p4" fill="#fff" stroke="#000" stroke-width="3" stroke-linejoin="round"/></mask><clipPath id="c4"><use href="#p4" transform="translate(-3.5 1)"/></clipPath><mask id="mt" maskUnits="userSpaceOnUse" x="0" y="0" width="256" height="256"><use href="#pt" fill="#fff" stroke="#000" stroke-width="3" stroke-linejoin="round"/><use href="#p0" fill="#000"/><use href="#p1" fill="#000"/><use href="#p2" fill="#000"/><use href="#p3" fill="#000"/><use href="#p4" fill="#000"/></mask><clipPath id="ct"><use href="#pt" transform="translate(-3.5 1)"/></clipPath></defs>
<g id="silhouette" fill="#0b0907"><use href="#pt"/><g id="s-tier0"><animateTransform attributeName="transform" type="rotate" calcMode="discrete" dur="2.4s" repeatCount="indefinite" keyTimes="0;0.0347;0.0694;0.1042;0.1389;0.1736;0.2083;0.2431;0.2778;0.3125;0.3472;0.3819;0.4167;0.4514;0.4861;0.5208;0.5556;0.5903;0.625;0.6597;0.6944;0.7292;0.7639;0.7986;0.8333;0.8681;0.9028;0.9375;0.9722;1" values="0 128 156;0.026 128 156;0.05 128 156;0.072 128 156;0.09 128 156;0.1 128 156;0.1 128 156;0.1 128 156;0.1 128 156;0.1 128 156;0.097 128 156;0.08 128 156;0.059 128 156;0.035 128 156;0.01 128 156;-0.015 128 156;-0.04 128 156;-0.063 128 156;-0.083 128 156;-0.1 128 156;-0.1 128 156;-0.1 128 156;-0.1 128 156;-0.1 128 156;-0.1 128 156;-0.087 128 156;-0.068 128 156;-0.045 128 156;-0.02 128 156;0 128 156"/><use href="#p0"/><g id="s-tier1"><animateTransform attributeName="transform" type="rotate" calcMode="discrete" dur="2.4s" repeatCount="indefinite" keyTimes="0;0.0347;0.0694;0.1042;0.1389;0.1736;0.2083;0.2431;0.2778;0.3125;0.3472;0.3819;0.4167;0.4514;0.4861;0.5208;0.5556;0.5903;0.625;0.6597;0.6944;0.7292;0.7639;0.7986;0.8333;0.8681;0.9028;0.9375;0.9722;1" values="-0.123 129 160;-0.077 129 160;-0.027 129 160;0.025 129 160;0.075 129 160;0.122 129 160;0.162 129 160;0.196 129 160;0.2 129 160;0.2 129 160;0.2 129 160;0.2 129 160;0.2 129 160;0.178 129 160;0.14 129 160;0.096 129 160;0.047 129 160;-0.004 129 160;-0.055 129 160;-0.103 129 160;-0.147 129 160;-0.183 129 160;-0.2 129 160;-0.2 129 160;-0.2 129 160;-0.2 129 160;-0.2 129 160;-0.191 129 160;-0.156 129 160;-0.123 129 160"/><use href="#p1"/><g id="s-tier2"><animateTransform attributeName="transform" type="rotate" calcMode="discrete" dur="2.4s" repeatCount="indefinite" keyTimes="0;0.0347;0.0694;0.1042;0.1389;0.1736;0.2083;0.2431;0.2778;0.3125;0.3472;0.3819;0.4167;0.4514;0.4861;0.5208;0.5556;0.5903;0.625;0.6597;0.6944;0.7292;0.7639;0.7986;0.8333;0.8681;0.9028;0.9375;0.9722;1" values="-0.3 132 131;-0.273 132 131;-0.218 132 131;-0.153 132 131;-0.08 132 131;-0.003 132 131;0.073 132 131;0.147 132 131;0.213 132 131;0.269 132 131;0.3 132 131;0.3 132 131;0.3 132 131;0.3 132 131;0.3 132 131;0.292 132 131;0.242 132 131;0.18 132 131;0.11 132 131;0.034 132 131;-0.043 132 131;-0.118 132 131;-0.187 132 131;-0.248 132 131;-0.297 132 131;-0.3 132 131;-0.3 132 131;-0.3 132 131;-0.3 132 131;-0.3 132 131"/><use href="#p2"/><g id="s-tier3"><animateTransform attributeName="transform" type="rotate" calcMode="discrete" dur="2.4s" repeatCount="indefinite" keyTimes="0;0.0347;0.0694;0.1042;0.1389;0.1736;0.2083;0.2431;0.2778;0.3125;0.3472;0.3819;0.4167;0.4514;0.4861;0.5208;0.5556;0.5903;0.625;0.6597;0.6944;0.7292;0.7639;0.7986;0.8333;0.8681;0.9028;0.9375;0.9722;1" values="-0.45 135 101;-0.45 135 101;-0.45 135 101;-0.446 135 101;-0.372 135 101;-0.282 135 101;-0.178 135 101;-0.065 135 101;0.051 135 101;0.164 135 101;0.269 135 101;0.362 135 101;0.437 135 101;0.45 135 101;0.45 135 101;0.45 135 101;0.45 135 101;0.45 135 101;0.404 135 101;0.32 135 101;0.221 135 101;0.111 135 101;-0.004 135 101;-0.119 135 101;-0.228 135 101;-0.327 135 101;-0.41 135 101;-0.45 135 101;-0.45 135 101;-0.45 135 101"/><use href="#p3"/><g id="s-tier4"><animateTransform attributeName="transform" type="rotate" calcMode="discrete" dur="2.4s" repeatCount="indefinite" keyTimes="0;0.0347;0.0694;0.1042;0.1389;0.1736;0.2083;0.2431;0.2778;0.3125;0.3472;0.3819;0.4167;0.4514;0.4861;0.5208;0.5556;0.5903;0.625;0.6597;0.6944;0.7292;0.7639;0.7986;0.8333;0.8681;0.9028;0.9375;0.9722;1" values="-0.668 139 70;-0.7 139 70;-0.7 139 70;-0.7 139 70;-0.7 139 70;-0.7 139 70;-0.642 139 70;-0.515 139 70;-0.363 139 70;-0.194 139 70;-0.015 139 70;0.164 139 70;0.335 139 70;0.491 139 70;0.623 139 70;0.7 139 70;0.7 139 70;0.7 139 70;0.7 139 70;0.7 139 70;0.685 139 70;0.569 139 70;0.426 139 70;0.263 139 70;0.087 139 70;-0.093 139 70;-0.268 139 70;-0.431 139 70;-0.573 139 70;-0.668 139 70"/><use href="#p4"/></g></g></g></g></g></g>
<g id="colour"><g id="c-trunk" mask="url(#mt)"><rect x="124" y="150" width="60" height="90" fill="#f2a94a"/><use href="#pt" transform="translate(-3.5 1)" fill="#5a3a24"/><path d="M123 186 L128.5 192 L126.5 197 L131 203 L133 209 L131.5 214 L126 220 L124 226 L121.5 231 L125 240 L160 240 L160 186 Z" clip-path="url(#ct)" fill="#2a1a10"/></g><g id="c-tier0"><animateTransform attributeName="transform" type="rotate" calcMode="discrete" dur="2.4s" repeatCount="indefinite" keyTimes="0;0.0347;0.0694;0.1042;0.1389;0.1736;0.2083;0.2431;0.2778;0.3125;0.3472;0.3819;0.4167;0.4514;0.4861;0.5208;0.5556;0.5903;0.625;0.6597;0.6944;0.7292;0.7639;0.7986;0.8333;0.8681;0.9028;0.9375;0.9722;1" values="0 128 156;0.026 128 156;0.05 128 156;0.072 128 156;0.09 128 156;0.1 128 156;0.1 128 156;0.1 128 156;0.1 128 156;0.1 128 156;0.097 128 156;0.08 128 156;0.059 128 156;0.035 128 156;0.01 128 156;-0.015 128 156;-0.04 128 156;-0.063 128 156;-0.083 128 156;-0.1 128 156;-0.1 128 156;-0.1 128 156;-0.1 128 156;-0.1 128 156;-0.1 128 156;-0.087 128 156;-0.068 128 156;-0.045 128 156;-0.02 128 156;0 128 156"/><g mask="url(#m0)"><use href="#p0" fill="#4c5a3a"/><rect x="140" y="140" width="116" height="72" fill="#f2a94a"/><use href="#p0" transform="translate(-3.5 1)" fill="#7a7d55"/><path d="M133 142 L132 152.2 L129 155.2 L128 161.4 L125 164.4 L124 170.6 L121 173.6 L120 179.8 L117 182.8 L116 189 L113 192 L109 206 L256 206 L256 142 Z" clip-path="url(#c0)" fill="#4c5a3a"/></g><g id="c-tier1"><animateTransform attributeName="transform" type="rotate" calcMode="discrete" dur="2.4s" repeatCount="indefinite" keyTimes="0;0.0347;0.0694;0.1042;0.1389;0.1736;0.2083;0.2431;0.2778;0.3125;0.3472;0.3819;0.4167;0.4514;0.4861;0.5208;0.5556;0.5903;0.625;0.6597;0.6944;0.7292;0.7639;0.7986;0.8333;0.8681;0.9028;0.9375;0.9722;1" values="-0.123 129 160;-0.077 129 160;-0.027 129 160;0.025 129 160;0.075 129 160;0.122 129 160;0.162 129 160;0.196 129 160;0.2 129 160;0.2 129 160;0.2 129 160;0.2 129 160;0.2 129 160;0.178 129 160;0.14 129 160;0.096 129 160;0.047 129 160;-0.004 129 160;-0.055 129 160;-0.103 129 160;-0.147 129 160;-0.183 129 160;-0.2 129 160;-0.2 129 160;-0.2 129 160;-0.2 129 160;-0.2 129 160;-0.191 129 160;-0.156 129 160;-0.123 129 160"/><g mask="url(#m1)"><use href="#p1" fill="#4c5a3a"/><rect x="140" y="112" width="116" height="68" fill="#f2a94a"/><use href="#p1" transform="translate(-3.5 1)" fill="#7a7d55"/><path d="M135 114 L134 124 L131 127 L130 133 L127 136 L126 142 L123 145 L122 151 L119 154 L118 160 L115 163 L111 177 L256 177 L256 114 Z" clip-path="url(#c1)" fill="#4c5a3a"/></g><g id="c-tier2"><animateTransform attributeName="transform" type="rotate" calcMode="discrete" dur="2.4s" repeatCount="indefinite" keyTimes="0;0.0347;0.0694;0.1042;0.1389;0.1736;0.2083;0.2431;0.2778;0.3125;0.3472;0.3819;0.4167;0.4514;0.4861;0.5208;0.5556;0.5903;0.625;0.6597;0.6944;0.7292;0.7639;0.7986;0.8333;0.8681;0.9028;0.9375;0.9722;1" values="-0.3 132 131;-0.273 132 131;-0.218 132 131;-0.153 132 131;-0.08 132 131;-0.003 132 131;0.073 132 131;0.147 132 131;0.213 132 131;0.269 132 131;0.3 132 131;0.3 132 131;0.3 132 131;0.3 132 131;0.3 132 131;0.292 132 131;0.242 132 131;0.18 132 131;0.11 132 131;0.034 132 131;-0.043 132 131;-0.118 132 131;-0.187 132 131;-0.248 132 131;-0.297 132 131;-0.3 132 131;-0.3 132 131;-0.3 132 131;-0.3 132 131;-0.3 132 131"/><g mask="url(#m2)"><use href="#p2" fill="#4c5a3a"/><rect x="142" y="82" width="114" height="68" fill="#f2a94a"/><use href="#p2" transform="translate(-3.5 1)" fill="#7a7d55"/><path d="M138 85 L137 94.8 L134 97.8 L133 103.6 L130 106.6 L129 112.4 L126 115.4 L125 121.2 L122 124.2 L121 130 L118 133 L114 147 L256 147 L256 85 Z" clip-path="url(#c2)" fill="#4c5a3a"/></g><g id="c-tier3"><animateTransform attributeName="transform" type="rotate" calcMode="discrete" dur="2.4s" repeatCount="indefinite" keyTimes="0;0.0347;0.0694;0.1042;0.1389;0.1736;0.2083;0.2431;0.2778;0.3125;0.3472;0.3819;0.4167;0.4514;0.4861;0.5208;0.5556;0.5903;0.625;0.6597;0.6944;0.7292;0.7639;0.7986;0.8333;0.8681;0.9028;0.9375;0.9722;1" values="-0.45 135 101;-0.45 135 101;-0.45 135 101;-0.446 135 101;-0.372 135 101;-0.282 135 101;-0.178 135 101;-0.065 135 101;0.051 135 101;0.164 135 101;0.269 135 101;0.362 135 101;0.437 135 101;0.45 135 101;0.45 135 101;0.45 135 101;0.45 135 101;0.45 135 101;0.404 135 101;0.32 135 101;0.221 135 101;0.111 135 101;-0.004 135 101;-0.119 135 101;-0.228 135 101;-0.327 135 101;-0.41 135 101;-0.45 135 101;-0.45 135 101;-0.45 135 101"/><g mask="url(#m3)"><use href="#p3" fill="#4c5a3a"/><rect x="145" y="54" width="111" height="66" fill="#f2a94a"/><use href="#p3" transform="translate(-3.5 1)" fill="#7a7d55"/><path d="M141 56 L140 65.6 L137 68.6 L136 74.2 L133 77.2 L132 82.8 L129 85.8 L128 91.4 L125 94.4 L124 100 L121 103 L117 117 L256 117 L256 56 Z" clip-path="url(#c3)" fill="#4c5a3a"/></g><g id="c-tier4"><animateTransform attributeName="transform" type="rotate" calcMode="discrete" dur="2.4s" repeatCount="indefinite" keyTimes="0;0.0347;0.0694;0.1042;0.1389;0.1736;0.2083;0.2431;0.2778;0.3125;0.3472;0.3819;0.4167;0.4514;0.4861;0.5208;0.5556;0.5903;0.625;0.6597;0.6944;0.7292;0.7639;0.7986;0.8333;0.8681;0.9028;0.9375;0.9722;1" values="-0.668 139 70;-0.7 139 70;-0.7 139 70;-0.7 139 70;-0.7 139 70;-0.7 139 70;-0.642 139 70;-0.515 139 70;-0.363 139 70;-0.194 139 70;-0.015 139 70;0.164 139 70;0.335 139 70;0.491 139 70;0.623 139 70;0.7 139 70;0.7 139 70;0.7 139 70;0.7 139 70;0.7 139 70;0.685 139 70;0.569 139 70;0.426 139 70;0.263 139 70;0.087 139 70;-0.093 139 70;-0.268 139 70;-0.431 139 70;-0.573 139 70;-0.668 139 70"/><g mask="url(#m4)"><use href="#p4" fill="#4c5a3a"/><rect x="148" y="4" width="108" height="84" fill="#f2a94a"/><use href="#p4" transform="translate(-3.5 1)" fill="#7a7d55"/><path d="M146 6 L145 19.4 L142 22.4 L141 31.8 L138 34.8 L137 44.2 L134 47.2 L133 56.6 L130 59.6 L129 69 L126 72 L122 86 L256 86 L256 6 Z" clip-path="url(#c4)" fill="#4c5a3a"/></g></g></g></g></g></g></g>
</svg>
