<svg xmlns="http://www.w3.org/2000/svg" viewBox="0 0 256 256" data-duration="2.4">
<title>Silas the lamplighter, idle (rig)</title>
<defs><radialGradient id="halo"><stop offset="0" stop-color="#fff0c8" stop-opacity="0.55"/><stop offset="0.35" stop-color="#f2a94a" stop-opacity="0.3"/><stop offset="1" stop-color="#f2a94a" stop-opacity="0"/></radialGradient></defs>
<g id="silhouette" fill="#0b0907">
<g class="feet" transform="translate(128 232)"><g><animateTransform attributeName="transform" type="scale" dur="2.4s" repeatCount="indefinite" calcMode="discrete" keyTimes="0;0.0347;0.0694;0.1042;0.1389;0.1736;0.2083;0.2431;0.2778;0.3125;0.3472;0.3819;0.4167;0.4514;0.4861;0.5208;0.5556;0.5903;0.625;0.6597;0.6944;0.7292;0.7639;0.7986;0.8333;0.8681;0.9028;0.9375;0.9722" values="1 1;1 1;1 1.0003;1 1.001;1 1.0022;1 1.0037;1 1.0056;1 1.0075;1 1.0094;1 1.0112;1 1.0128;1 1.014;1 1.0147;1 1.015;1 1.015;1 1.015;1 1.0148;1 1.0141;1 1.0131;1 1.0118;1 1.0102;1 1.0084;1 1.0066;1 1.0048;1 1.0032;1 1.0019;1 1.0009;1 1.0002;1 1"/><g transform="translate(-128 -232)">
<g id="silhouette-legs"><path d="M110.5 196 L121.5 196 L122 224.5 L127.5 227 L132.5 229.2 Q134.6 230.6 132.4 232 L118.2 232 L117 229.6 L114.2 229.6 L113.2 232 L109.4 232 L110.5 224 Z"/><path d="M125 196 L136 196 L136 223.5 L142 226.4 L148 227.8 Q150.8 228 151.6 226.4 L151.4 229.4 Q150 232 146 232 L134.2 232 L133 229.6 L130.2 229.6 L129.2 232 L124.4 232 L125.8 224 Z"/></g>
<g id="silhouette-arm-back"><path d="M109 110 L119 115 L115.5 166 L112.5 176.5 L105 174 L104.5 165 L106.5 140 Z"/></g>
<g id="silhouette-scarf-tail"><animateTransform attributeName="transform" type="rotate" dur="2.4s" repeatCount="indefinite" calcMode="discrete" keyTimes="0;0.0347;0.0694;0.1042;0.1389;0.1736;0.2083;0.2431;0.2778;0.3125;0.3472;0.3819;0.4167;0.4514;0.4861;0.5208;0.5556;0.5903;0.625;0.6597;0.6944;0.7292;0.7639;0.7986;0.8333;0.8681;0.9028;0.9375;0.9722" values="-1.95 111 106;-2.00 111 106;-2.00 111 106;-1.94 111 106;-1.77 111 106;-1.50 111 106;-1.14 111 106;-0.71 111 106;-0.24 111 106;0.24 111 106;0.71 111 106;1.14 111 106;1.50 111 106;1.77 111 106;1.94 111 106;2.00 111 106;2.00 111 106;1.95 111 106;1.80 111 106;1.56 111 106;1.25 111 106;0.87 111 106;0.44 111 106;0.00 111 106;-0.44 111 106;-0.87 111 106;-1.25 111 106;-1.56 111 106;-1.80 111 106"/><path d="M113 101 L99 111 L89.5 131 L82.5 151 L77.5 163 L83.4 158.6 L85.4 166 L89 152 L96.5 134 L111 118 Z M114.5 107 L105.5 124 L99.5 142 L95.5 155.5 L101 151.2 L103.4 158 L105 145 L109.5 129 L115.5 125 Z"/></g>
<g id="silhouette-torso"><path d="M115 106 L139 103.5 Q151 106.5 153 118 L154 127 L153 136 L150.5 144 L148 150 L149.5 158 L152 168 L154.5 178 L155.5 187 L157.5 195.5 L152 202.5 Q146.5 205.5 143 200.8 Q138 204 132.5 200.4 Q126.5 203.6 120.5 201.6 Q115 205 109.5 203.2 L106.5 188 L103.5 204.2 Q96 207.2 86 207.5 L92 197 L95.5 186 L98.5 175 L101.5 163 L104 150 L102.5 132 Q103 110 115 106 Z M146 160.4 L148.3 163 L146 165.6 L143.7 163 Z M148 173.4 L150.3 176 L148 178.6 L145.7 176 Z M149 186.4 L151.3 189 L149 191.6 L146.7 189 Z M146 117.5 A2.5 2.5 0 1 0 141 117.5 A2.5 2.5 0 1 0 146 117.5 Z M144.6 117.5 A1.1 1.1 0 1 0 142.4 117.5 A1.1 1.1 0 1 0 144.6 117.5 Z" fill-rule="evenodd"/><path d="M106 97 Q128 104 148 97.5 L151 110 Q128 118 104 115 Z"/></g>
<g id="silhouette-head"><animateTransform attributeName="transform" type="rotate" dur="2.4s" repeatCount="indefinite" calcMode="discrete" keyTimes="0;0.0347;0.0694;0.1042;0.1389;0.1736;0.2083;0.2431;0.2778;0.3125;0.3472;0.3819;0.4167;0.4514;0.4861;0.5208;0.5556;0.5903;0.625;0.6597;0.6944;0.7292;0.7639;0.7986;0.8333;0.8681;0.9028;0.9375;0.9722" values="0 132 104;0 132 104;-0.02 132 104;-0.08 132 104;-0.18 132 104;-0.3 132 104;-0.44 132 104;-0.6 132 104;-0.76 132 104;-0.9 132 104;-1.02 132 104;-1.12 132 104;-1.18 132 104;-1.2 132 104;-1.2 132 104;-1.2 132 104;-1.12 132 104;-1.02 132 104;-0.9 132 104;-0.76 132 104;-0.6 132 104;-0.44 132 104;-0.3 132 104;-0.18 132 104;-0.08 132 104;-0.02 132 104;0 132 104;0 132 104;0 132 104"/><g transform="translate(132 104) scale(1.12) translate(-132 -104)"><path d="M113 60 L147 58 L150 69 L153.5 76 L158 80 Q163 82.8 164.4 86.2 Q164.6 88.8 162 89 L156.2 89.4 L153 91 L155 92.4 Q154.6 99 144 102 L140 104.5 L119 105 Q112.6 99.6 112.2 90 Q111.8 74 113 60 Z M120.6 79.4 Q124.8 80.2 124.4 83.2 Q123.8 85.8 120.8 85.4 Q122.6 84 122.6 82.6 Q122.5 80.6 120.6 79.4 Z M139.5 73 Q146 70 150.5 75.4 Q145.5 80 139.5 73 Z" fill-rule="evenodd"><animate attributeName="d" dur="2.4s" repeatCount="indefinite" calcMode="discrete" keyTimes="0;0.5903;0.625;0.6597;0.6944" values="M113 60 L147 58 L150 69 L153.5 76 L158 80 Q163 82.8 164.4 86.2 Q164.6 88.8 162 89 L156.2 89.4 L153 91 L155 92.4 Q154.6 99 144 102 L140 104.5 L119 105 Q112.6 99.6 112.2 90 Q111.8 74 113 60 Z M120.6 79.4 Q124.8 80.2 124.4 83.2 Q123.8 85.8 120.8 85.4 Q122.6 84 122.6 82.6 Q122.5 80.6 120.6 79.4 Z M139.5 73 Q146 70 150.5 75.4 Q145.5 80 139.5 73 Z;M113 60 L147 58 L150 69 L153.5 76 L158 80 Q163 82.8 164.4 86.2 Q164.6 88.8 162 89 L156.2 89.4 L153 91 L155 92.4 Q154.6 99 144 102 L140 104.5 L119 105 Q112.6 99.6 112.2 90 Q111.8 74 113 60 Z M120.6 79.4 Q124.8 80.2 124.4 83.2 Q123.8 85.8 120.8 85.4 Q122.6 84 122.6 82.6 Q122.5 80.6 120.6 79.4 Z M139.5 75.4 Q146 73.6 150.5 76.36 Q145.5 78.2 139.5 75.4 Z;M113 60 L147 58 L150 69 L153.5 76 L158 80 Q163 82.8 164.4 86.2 Q164.6 88.8 162 89 L156.2 89.4 L153 91 L155 92.4 Q154.6 99 144 102 L140 104.5 L119 105 Q112.6 99.6 112.2 90 Q111.8 74 113 60 Z M120.6 79.4 Q124.8 80.2 124.4 83.2 Q123.8 85.8 120.8 85.4 Q122.6 84 122.6 82.6 Q122.5 80.6 120.6 79.4 Z;M113 60 L147 58 L150 69 L153.5 76 L158 80 Q163 82.8 164.4 86.2 Q164.6 88.8 162 89 L156.2 89.4 L153 91 L155 92.4 Q154.6 99 144 102 L140 104.5 L119 105 Q112.6 99.6 112.2 90 Q111.8 74 113 60 Z M120.6 79.4 Q124.8 80.2 124.4 83.2 Q123.8 85.8 120.8 85.4 Q122.6 84 122.6 82.6 Q122.5 80.6 120.6 79.4 Z M139.5 75.4 Q146 73.6 150.5 76.36 Q145.5 78.2 139.5 75.4 Z;M113 60 L147 58 L150 69 L153.5 76 L158 80 Q163 82.8 164.4 86.2 Q164.6 88.8 162 89 L156.2 89.4 L153 91 L155 92.4 Q154.6 99 144 102 L140 104.5 L119 105 Q112.6 99.6 112.2 90 Q111.8 74 113 60 Z M120.6 79.4 Q124.8 80.2 124.4 83.2 Q123.8 85.8 120.8 85.4 Q122.6 84 122.6 82.6 Q122.5 80.6 120.6 79.4 Z M139.5 73 Q146 70 150.5 75.4 Q145.5 80 139.5 73 Z"/></path><path d="M107 66 L109.5 47 Q112 36.5 127 34 L145 35.5 Q151.5 39 150.5 51 L151.5 59.5 L163 60.5 L165 62.5 L161 65.5 L108 68.5 Z M129 45 L132 42 L135 45 L134 50 L130 50 Z" fill-rule="evenodd"/></g></g>
<g id="silhouette-arm-front"><animateTransform attributeName="transform" type="rotate" dur="2.4s" repeatCount="indefinite" calcMode="discrete" keyTimes="0;0.0347;0.0694;0.1042;0.1389;0.1736;0.2083;0.2431;0.2778;0.3125;0.3472;0.3819;0.4167;0.4514;0.4861;0.5208;0.5556;0.5903;0.625;0.6597;0.6944;0.7292;0.7639;0.7986;0.8333;0.8681;0.9028;0.9375;0.9722" values="-0.27 142 113;-0.52 142 113;-0.75 142 113;-0.94 142 113;-1.08 142 113;-1.17 142 113;-1.2 142 113;-1.2 142 113;-1.17 142 113;-1.06 142 113;-0.9 142 113;-0.68 142 113;-0.43 142 113;-0.14 142 113;0.14 142 113;0.43 142 113;0.68 142 113;0.9 142 113;1.06 142 113;1.17 142 113;1.2 142 113;1.2 142 113;1.17 142 113;1.07 142 113;0.92 142 113;0.72 142 113;0.48 142 113;0.22 142 113;0 142 113"/><path d="M136 110 L148.5 109 L151.8 117.4 L152.9 121 L155.6 127.8 Q159.8 133.4 162.5 135.6 L167.2 138.2 L171.5 140.8 Q175.5 137.8 179.8 140 Q183.4 143.4 181.6 148.2 L179.2 151.8 L177.6 149.4 L175.4 150 L174.6 152.8 Q172.2 153.4 171.2 149.2 L166.4 148.4 L161 148.2 L156.8 148.6 Q151 149.8 148.6 145.8 L144.7 138.6 L141.2 131.2 L137.5 124 Z M146 117.5 A2.5 2.5 0 1 0 141 117.5 A2.5 2.5 0 1 0 146 117.5 Z M144.6 117.5 A1.1 1.1 0 1 0 142.4 117.5 A1.1 1.1 0 1 0 144.6 117.5 Z M158.8 141.5 A2.3 2.3 0 1 0 154.2 141.5 A2.3 2.3 0 1 0 158.8 141.5 Z M157.5 141.5 A1 1 0 1 0 155.5 141.5 A1 1 0 1 0 157.5 141.5 Z" fill-rule="evenodd"/>
<g id="silhouette-lantern"><animateTransform attributeName="transform" type="rotate" dur="2.4s" repeatCount="indefinite" calcMode="discrete" keyTimes="0;0.0347;0.0694;0.1042;0.1389;0.1736;0.2083;0.2431;0.2778;0.3125;0.3472;0.3819;0.4167;0.4514;0.4861;0.5208;0.5556;0.5903;0.625;0.6597;0.6944;0.7292;0.7639;0.7986;0.8333;0.8681;0.9028;0.9375;0.9722" values="0 177 149;1.56 177 149;3.04 177 149;4.36 177 149;5.47 177 149;6.31 177 149;6.82 177 149;7 177 149;7 177 149;6.8 177 149;6.2 177 149;5.24 177 149;3.98 177 149;2.48 177 149;0.84 177 149;-0.84 177 149;-2.48 177 149;-3.98 177 149;-5.24 177 149;-6.2 177 149;-6.8 177 149;-7 177 149;-7 177 149;-6.81 177 149;-6.27 177 149;-5.39 177 149;-4.22 177 149;-2.83 177 149;-1.29 177 149"/><path d="M175.5 147 L178.5 147 L179 158 L175 158 Z"/><path d="M167 165 L172 158.5 L177 155.5 L182 158.5 L187 165 L185 166 L185 184 L188 186.5 L186 190 L178.5 191 L180 194 L174 194 L175.5 191 L168 190 L166 186.5 L169 184 L169 166 Z M171 167.5 L175.5 167 L175.5 182.5 L171 182 Z M178.5 167 L183 167.5 L183 182 L178.5 182.5 Z" fill-rule="evenodd"/></g>
</g>
</g></g></g>
</g>
<g id="colour">
<g class="feet" transform="translate(128 232)"><g><animateTransform attributeName="transform" type="scale" dur="2.4s" repeatCount="indefinite" calcMode="discrete" keyTimes="0;0.0347;0.0694;0.1042;0.1389;0.1736;0.2083;0.2431;0.2778;0.3125;0.3472;0.3819;0.4167;0.4514;0.4861;0.5208;0.5556;0.5903;0.625;0.6597;0.6944;0.7292;0.7639;0.7986;0.8333;0.8681;0.9028;0.9375;0.9722" values="1 1;1 1;1 1.0003;1 1.001;1 1.0022;1 1.0037;1 1.0056;1 1.0075;1 1.0094;1 1.0112;1 1.0128;1 1.014;1 1.0147;1 1.015;1 1.015;1 1.015;1 1.0148;1 1.0141;1 1.0131;1 1.0118;1 1.0102;1 1.0084;1 1.0066;1 1.0048;1 1.0032;1 1.0019;1 1.0009;1 1.0002;1 1"/><g transform="translate(-128 -232)">
<g id="colour-legs"><path d="M112.6 206 L119.4 206 L119.9 222.6 L112.6 222.6 Z" fill="#3b3548"/><path d="M127.1 206 L133.9 206 L133.9 221.8 L127.9 221.8 Z" fill="#3b3548"/></g>
<g id="colour-arm-back"><path d="M111.5 114 L116.5 117 L113 164 L110.8 172 L107.2 170.8 L107 164 L109 140 Z" fill="#3b3548"/></g>
<g id="colour-scarf-tail"><animateTransform attributeName="transform" type="rotate" dur="2.4s" repeatCount="indefinite" calcMode="discrete" keyTimes="0;0.0347;0.0694;0.1042;0.1389;0.1736;0.2083;0.2431;0.2778;0.3125;0.3472;0.3819;0.4167;0.4514;0.4861;0.5208;0.5556;0.5903;0.625;0.6597;0.6944;0.7292;0.7639;0.7986;0.8333;0.8681;0.9028;0.9375;0.9722" values="-1.95 111 106;-2.00 111 106;-2.00 111 106;-1.94 111 106;-1.77 111 106;-1.50 111 106;-1.14 111 106;-0.71 111 106;-0.24 111 106;0.24 111 106;0.71 111 106;1.14 111 106;1.50 111 106;1.77 111 106;1.94 111 106;2.00 111 106;2.00 111 106;1.95 111 106;1.80 111 106;1.56 111 106;1.25 111 106;0.87 111 106;0.44 111 106;0.00 111 106;-0.44 111 106;-0.87 111 106;-1.25 111 106;-1.56 111 106;-1.80 111 106"/><path d="M110.4 104.4 L101.2 112.4 L92 132 L85.2 150.4 L82.6 157 L84.6 155.4 L86.2 158.6 L87 151.6 L94.4 133.6 L108 117.4 Z M112.4 111.5 L107.8 124.6 L102 142.4 L99.8 149.6 L101.8 148.2 L103 150.6 L103.2 144.2 L107.4 129 L112.8 124.5 Z" fill="#b4574a"/></g>
<g id="colour-torso"><path d="M116 108.7 L138.5 106.3 Q148.5 109 150.3 118.5 L151.2 127 L150.3 135.5 L147.8 143.5 L145.4 150 L146.8 158 L149.3 168 L151.8 178 L152.8 187 L154.3 194.5 L149.6 199.4 Q144.6 202.2 141.6 197.8 Q137 200.8 132.4 197.4 Q126.6 200.4 120.4 198.6 Q115.4 201.8 111.4 200.4 L106.5 184.8 L101.6 200.8 Q96 203.6 90.8 203.8 L94.6 196 L97.8 185.5 L100.8 174.5 L103.6 162.5 L106.2 150 L104.8 132 Q105.6 111.5 116 108.7 Z M146 159.2 L149.4 163 L146 166.8 L142.6 163 Z M148 172.2 L151.4 176 L148 179.8 L144.6 176 Z M149 185.2 L152.4 189 L149 192.8 L145.6 189 Z M146.8 117.5 A3.3 3.3 0 1 0 140.2 117.5 A3.3 3.3 0 1 0 146.8 117.5 Z" fill="#3b3548" fill-rule="evenodd"/><path d="M109 100.6 Q128 107 145.6 101 L147.6 107.8 Q128 114.6 107.6 112.4 Z" fill="#b4574a"/><path d="M152 119.5 L152.7 127 L151.8 136 L149.3 144 L146.8 150.2 L148.2 158 L150.7 168 L153.2 178 L154.2 187 L155.9 194.2" fill="none" stroke="#f2a94a" stroke-width="1.6" stroke-linecap="round" stroke-linejoin="round"/></g>
<g id="colour-head"><animateTransform attributeName="transform" type="rotate" dur="2.4s" repeatCount="indefinite" calcMode="discrete" keyTimes="0;0.0347;0.0694;0.1042;0.1389;0.1736;0.2083;0.2431;0.2778;0.3125;0.3472;0.3819;0.4167;0.4514;0.4861;0.5208;0.5556;0.5903;0.625;0.6597;0.6944;0.7292;0.7639;0.7986;0.8333;0.8681;0.9028;0.9375;0.9722" values="0 132 104;0 132 104;-0.02 132 104;-0.08 132 104;-0.18 132 104;-0.3 132 104;-0.44 132 104;-0.6 132 104;-0.76 132 104;-0.9 132 104;-1.02 132 104;-1.12 132 104;-1.18 132 104;-1.2 132 104;-1.2 132 104;-1.2 132 104;-1.12 132 104;-1.02 132 104;-0.9 132 104;-0.76 132 104;-0.6 132 104;-0.44 132 104;-0.3 132 104;-0.18 132 104;-0.08 132 104;-0.02 132 104;0 132 104;0 132 104;0 132 104"/><g transform="translate(132 104) scale(1.12) translate(-132 -104)"><path d="M121 71 L146.6 69.3 L148 70 L151.5 77.5 L156.6 81.8 Q160.6 84.2 161.8 86.6 L155.6 87.2 L151.6 89.4 L152.6 92.4 Q151.4 97.2 142.6 100.2 L139.5 102 L121.5 102.2 Q115.4 97.8 115 89.5 Q115 82 118.5 76 L121 71 Z M119.6 78 Q126.4 79.2 125.8 83.4 Q125 87.4 119.8 86.6 Q121.4 84.6 121.4 82.6 Q121.2 80 119.6 78 Z M137.5 72.4 Q146 67.9 152.5 75.2 Q145.5 82 137.5 72.4 Z" fill="#e9dfc6" fill-rule="evenodd"><animate attributeName="d" dur="2.4s" repeatCount="indefinite" calcMode="discrete" keyTimes="0;0.5903;0.625;0.6597;0.6944" values="M121 71 L146.6 69.3 L148 70 L151.5 77.5 L156.6 81.8 Q160.6 84.2 161.8 86.6 L155.6 87.2 L151.6 89.4 L152.6 92.4 Q151.4 97.2 142.6 100.2 L139.5 102 L121.5 102.2 Q115.4 97.8 115 89.5 Q115 82 118.5 76 L121 71 Z M119.6 78 Q126.4 79.2 125.8 83.4 Q125 87.4 119.8 86.6 Q121.4 84.6 121.4 82.6 Q121.2 80 119.6 78 Z M137.5 72.4 Q146 67.9 152.5 75.2 Q145.5 82 137.5 72.4 Z;M121 71 L146.6 69.3 L148 70 L151.5 77.5 L156.6 81.8 Q160.6 84.2 161.8 86.6 L155.6 87.2 L151.6 89.4 L152.6 92.4 Q151.4 97.2 142.6 100.2 L139.5 102 L121.5 102.2 Q115.4 97.8 115 89.5 Q115 82 118.5 76 L121 71 Z M119.6 78 Q126.4 79.2 125.8 83.4 Q125 87.4 119.8 86.6 Q121.4 84.6 121.4 82.6 Q121.2 80 119.6 78 Z M137.5 75.16 Q146 72.46 152.5 76.28 Q145.5 79 137.5 75.16 Z;M121 71 L146.6 69.3 L148 70 L151.5 77.5 L156.6 81.8 Q160.6 84.2 161.8 86.6 L155.6 87.2 L151.6 89.4 L152.6 92.4 Q151.4 97.2 142.6 100.2 L139.5 102 L121.5 102.2 Q115.4 97.8 115 89.5 Q115 82 118.5 76 L121 71 Z M119.6 78 Q126.4 79.2 125.8 83.4 Q125 87.4 119.8 86.6 Q121.4 84.6 121.4 82.6 Q121.2 80 119.6 78 Z;M121 71 L146.6 69.3 L148 70 L151.5 77.5 L156.6 81.8 Q160.6 84.2 161.8 86.6 L155.6 87.2 L151.6 89.4 L152.6 92.4 Q151.4 97.2 142.6 100.2 L139.5 102 L121.5 102.2 Q115.4 97.8 115 89.5 Q115 82 118.5 76 L121 71 Z M119.6 78 Q126.4 79.2 125.8 83.4 Q125 87.4 119.8 86.6 Q121.4 84.6 121.4 82.6 Q121.2 80 119.6 78 Z M137.5 75.16 Q146 72.46 152.5 76.28 Q145.5 79 137.5 75.16 Z;M121 71 L146.6 69.3 L148 70 L151.5 77.5 L156.6 81.8 Q160.6 84.2 161.8 86.6 L155.6 87.2 L151.6 89.4 L152.6 92.4 Q151.4 97.2 142.6 100.2 L139.5 102 L121.5 102.2 Q115.4 97.8 115 89.5 Q115 82 118.5 76 L121 71 Z M119.6 78 Q126.4 79.2 125.8 83.4 Q125 87.4 119.8 86.6 Q121.4 84.6 121.4 82.6 Q121.2 80 119.6 78 Z M137.5 72.4 Q146 67.9 152.5 75.2 Q145.5 82 137.5 72.4 Z"/></path><path d="M112 63.5 L113.2 48 Q115 39.5 127.5 37.2 L144 38.5 Q148.5 41.5 147.6 51 L148.4 59.6 Z M128 46.5 L132 41 L136 46.5 L135 51.5 L129 51.5 Z" fill="#3b3548" fill-rule="evenodd"/><path d="M139.5 73 Q146 70 150.5 75.4 Q145.5 80 139.5 73 Z" fill="#f2a94a"><animate attributeName="d" dur="2.4s" repeatCount="indefinite" calcMode="discrete" keyTimes="0;0.5903;0.625;0.6597;0.6944" values="M146 76 M139.5 73 Q146 70 150.5 75.4 Q145.5 80 139.5 73 Z;M146 76 M139.5 75.4 Q146 73.6 150.5 76.36 Q145.5 78.2 139.5 75.4 Z;M146 76;M146 76 M139.5 75.4 Q146 73.6 150.5 76.36 Q145.5 78.2 139.5 75.4 Z;M146 76 M139.5 73 Q146 70 150.5 75.4 Q145.5 80 139.5 73 Z"/></path><circle cx="147.5" cy="75.3" r="1.1" fill="#fff0c8"><animate attributeName="opacity" dur="2.4s" repeatCount="indefinite" calcMode="discrete" keyTimes="0;0.5903;0.6944" values="1;0;1"/></circle><path d="M149.5 70 L153 77 L157.6 81 Q161.8 83.4 163 86.4" fill="none" stroke="#f2a94a" stroke-width="1.6" stroke-linecap="round" stroke-linejoin="round"/><path d="M150 52 L150.8 59.8 L162.5 61" fill="none" stroke="#f2a94a" stroke-width="1.6" stroke-linecap="round" stroke-linejoin="round"/></g></g>
<g id="colour-arm-front"><animateTransform attributeName="transform" type="rotate" dur="2.4s" repeatCount="indefinite" calcMode="discrete" keyTimes="0;0.0347;0.0694;0.1042;0.1389;0.1736;0.2083;0.2431;0.2778;0.3125;0.3472;0.3819;0.4167;0.4514;0.4861;0.5208;0.5556;0.5903;0.625;0.6597;0.6944;0.7292;0.7639;0.7986;0.8333;0.8681;0.9028;0.9375;0.9722" values="-0.27 142 113;-0.52 142 113;-0.75 142 113;-0.94 142 113;-1.08 142 113;-1.17 142 113;-1.2 142 113;-1.2 142 113;-1.17 142 113;-1.06 142 113;-0.9 142 113;-0.68 142 113;-0.43 142 113;-0.14 142 113;0.14 142 113;0.43 142 113;0.68 142 113;0.9 142 113;1.06 142 113;1.17 142 113;1.2 142 113;1.2 142 113;1.17 142 113;1.07 142 113;0.92 142 113;0.72 142 113;0.48 142 113;0.22 142 113;0 142 113"/><path d="M139 112.8 L146.6 112 L149.4 118.4 L150.6 122 L153.4 128.8 Q157.6 134.8 161 137.8 L166 140.6 L170.2 143.2 L170.2 146.8 L166.2 146.2 L161 145.6 L157 146 Q152.4 147 150.8 143.6 L147.2 136.8 L143.8 129.6 L140.3 123.6 Z M146.8 117.5 A3.3 3.3 0 1 0 140.2 117.5 A3.3 3.3 0 1 0 146.8 117.5 Z M159.5 141.5 A3 3 0 1 0 153.5 141.5 A3 3 0 1 0 159.5 141.5 Z" fill="#3b3548" fill-rule="evenodd"/><path d="M173.2 142.4 Q176 140.2 179 141.8 Q181.2 144 179.8 147.4 L178.8 148.6 L177.4 147.2 L175 147.8 L174.2 150.2 Q173.2 150.4 172.8 148.6 Z" fill="#e9dfc6"/><path d="M148.4 111.6 L151.5 120.2 L153.9 126.3 Q157.8 133 161.6 136.3 L167 139 L171.4 141.6 Q175.6 139.4 179.2 141.2" fill="none" stroke="#f2a94a" stroke-width="1.6" stroke-linecap="round" stroke-linejoin="round"/>
<g id="colour-lantern"><animateTransform attributeName="transform" type="rotate" dur="2.4s" repeatCount="indefinite" calcMode="discrete" keyTimes="0;0.0347;0.0694;0.1042;0.1389;0.1736;0.2083;0.2431;0.2778;0.3125;0.3472;0.3819;0.4167;0.4514;0.4861;0.5208;0.5556;0.5903;0.625;0.6597;0.6944;0.7292;0.7639;0.7986;0.8333;0.8681;0.9028;0.9375;0.9722" values="0 177 149;1.56 177 149;3.04 177 149;4.36 177 149;5.47 177 149;6.31 177 149;6.82 177 149;7 177 149;7 177 149;6.8 177 149;6.2 177 149;5.24 177 149;3.98 177 149;2.48 177 149;0.84 177 149;-0.84 177 149;-2.48 177 149;-3.98 177 149;-5.24 177 149;-6.2 177 149;-6.8 177 149;-7 177 149;-7 177 149;-6.81 177 149;-6.27 177 149;-5.39 177 149;-4.22 177 149;-2.83 177 149;-1.29 177 149"/><circle cx="177" cy="175" r="30" fill="url(#halo)" style="mix-blend-mode:screen"><animate attributeName="opacity" dur="0.6s" repeatCount="indefinite" calcMode="spline" keyTimes="0;0.45;0.8;0.88;1" keySplines=".45 0 .55 1;.45 0 .55 1;.45 0 .55 1;.45 0 .55 1" values="0.5;0.72;0.55;0.34;0.5"/></circle><path d="M170.2 166.7 L176.3 166.2 L176.3 183.3 L170.2 182.8 Z M177.7 166.2 L183.8 166.7 L183.8 182.8 L177.7 183.3 Z" fill="#f2a94a"><animate attributeName="fill" dur="0.48s" repeatCount="indefinite" calcMode="spline" keyTimes="0;0.35;0.62;0.7;1" keySplines=".45 0 .55 1;.45 0 .55 1;.45 0 .55 1;.45 0 .55 1" values="#f2a94a;#fff0c8;#f2a94a;#c2381e;#f2a94a"/></path><g transform="translate(177 181)"><g><animateTransform attributeName="transform" type="scale" dur="0.8s" repeatCount="indefinite" calcMode="spline" keyTimes="0;0.3;0.55;0.62;1" keySplines=".45 0 .55 1;.45 0 .55 1;.45 0 .55 1;.45 0 .55 1" values="1 1;1.08 1.12;0.96 0.9;0.9 0.78;1 1"/><g><animateTransform attributeName="transform" type="skewX" dur="0.48s" repeatCount="indefinite" calcMode="spline" keyTimes="0;0.5;1" keySplines=".45 0 .55 1;.45 0 .55 1" values="-6;7;-6"/><path d="M0 0 C-4.2 -1 -4.4 -6 -1.8 -9 C-0.8 -10.5 -0.2 -12.5 0 -14 C0.8 -11 4.4 -7 3.6 -3.2 C3.2 -0.8 1.8 0 0 0 Z" fill="#f2a94a"/><path d="M0 -0.6 C-2 -1 -2 -4 -0.6 -6.2 L0 -8.5 C0.6 -6 2 -4 1.6 -2 C1.4 -0.8 0.8 -0.6 0 -0.6 Z" fill="#fff0c8"/></g></g></g><path d="M183 159.5 L186.2 164.4" fill="none" stroke="#f2a94a" stroke-width="1.6" stroke-linecap="round" stroke-linejoin="round"/></g>
</g>
</g></g></g>
</g>
</svg>
