<svg xmlns="http://www.w3.org/2000/svg" viewBox="0 0 256 256" data-duration="1.0">
<title>Silas the lamplighter, walk cycle in place (rig)</title>
<defs>
<radialGradient id="halo"><stop offset="0" stop-color="#fff0c8" stop-opacity="0.55"/><stop offset="0.35" stop-color="#f2a94a" stop-opacity="0.3"/><stop offset="1" stop-color="#f2a94a" stop-opacity="0"/></radialGradient>
<path id="s-head" d="M114 63.5 L148 62.5 L150.2 69 L154 75 L160 79 L171.8 83.4 Q175 85 171.8 86.9 L160.4 88.2 L155.2 90 L157.4 92.6 Q156.6 97.4 151.6 99.6 L149.6 104.6 L121 105.4 L117.2 101.4 Q112.4 97 111.6 89 Q111 78 113.4 70.4 Z M140 73.5 Q145.5 70.8 150 75 Q145 78.4 140 73.5 Z" fill-rule="evenodd" clip-rule="evenodd"/>
<path id="s-cap" d="M108 68.6 L110.4 56 L113.6 48.4 L122.4 43.6 L138.2 42.6 L146.4 45.4 L148.8 52.6 L149.2 59.2 L157.6 59.4 L164.6 60.8 L168.4 63.2 L167.2 65.4 L160 65.4 L150 65.8 L114 67.4 Z"/>
<path id="s-torso" d="M121 106.6 L143.6 105.8 Q150.8 108.4 152.8 118.6 L152.6 132 L151.2 146 L152.8 160 L155.2 174 L157.2 186 L158.6 192.5 L156.2 196 Q153 198.2 150.4 194.4 L146.2 196.4 L142.6 195.2 Q139.2 199.2 134.2 194.8 L131.6 197 L128.4 194.6 Q124.4 198.8 119.6 194.6 L114 196.6 L110 195 L104 197.4 Q96 199.6 86.4 198.8 L92.6 186 L96.6 172 L99.8 158 L102.4 144 L102.6 128 Q103.2 117 110.6 112.4 L116 109.4 Z M136.08 140.2 Q136.38 137.36 139.3 137.46 Q142.12 137.96 141.82 140.4 Q141.52 142.74 138.8 142.54 Q135.98 141.94 136.08 140.2 Z M137.42 156.2 Q137.72 152.93 140.3 153.03 Q142.78 153.53 142.48 156.4 Q142.18 159.17 139.8 158.97 Q137.32 158.37 137.42 156.2 Z M138.3 172.2 Q138.6 169.38 141.3 169.48 Q143.9 169.98 143.6 172.4 Q143.3 174.72 140.8 174.52 Q138.2 173.92 138.3 172.2 Z M91.4 188.6 Q96.6 188.8 96 193.2 Q94.6 196 91.2 195 Q94 193.6 93.4 191.4 Q92.8 190 91.4 188.6 Z" fill-rule="evenodd" clip-rule="evenodd"/>
<path id="s-scarf" d="M118.6 102.6 Q134 108.2 149.6 102.2 L151.8 106.4 L156.4 103 Q162.4 103.4 161.4 108.8 L158.6 111.8 L162 117.2 Q159.2 121.2 154.4 117.6 L150.8 113.8 Q133 119.8 117.4 115.6 Z"/>
<path id="s-tail" d="M114 103.5 L100 114 L93 130 L89.6 142.4 L99.4 142.4 L101.6 132 L112.8 119.6 Z"/>
<path id="s-tip" d="M90.2 139.6 L85 154 L78.6 168.4 L85 163.6 L87.6 171.4 L91.2 157 L99.2 140.4 Z"/>
<path id="s-arm" d="M136 110.5 L148.4 109.6 L152.2 120 L156 130 Q160 135.8 165.2 137.8 L174 139.6 L182.4 140.6 Q186.4 138.2 190.2 140.8 Q193.2 144 191.2 148 L189.2 151 L187.6 148.8 L185 149.8 Q182 150.8 181.2 148.2 L172 148.2 L162 148.4 Q154 149.2 150.8 144.8 L146 136 L141 127 L137 119.6 Z"/>
<clipPath id="c-head"><use href="#s-head"/></clipPath>
<clipPath id="c-cap"><use href="#s-cap"/></clipPath>
<clipPath id="c-torso"><path d="M121 106.6 L143.6 105.8 Q150.8 108.4 152.8 118.6 L152.6 132 L151.2 146 L152.8 160 L155.2 174 L157.2 186 L158.6 192.5 L156.2 196 Q153 198.2 150.4 194.4 L146.2 196.4 L142.6 195.2 Q139.2 199.2 134.2 194.8 L131.6 197 L128.4 194.6 Q124.4 198.8 119.6 194.6 L114 196.6 L110 195 L104 197.4 Q96 199.6 86.4 198.8 L92.6 186 L96.6 172 L99.8 158 L102.4 144 L102.6 128 Q103.2 117 110.6 112.4 L116 109.4 Z"/></clipPath>
<clipPath id="c-scarf"><use href="#s-scarf"/></clipPath>
<clipPath id="c-arm"><use href="#s-arm"/></clipPath>
<clipPath id="k-main"><path d="M40 20 L230 20 L230 190 L146 190 L146 236 L116 236 L116 190 L40 190 Z"/></clipPath>
<clipPath id="k-rear"><path d="M40 176 L122 176 L122 236 L40 236 Z"/></clipPath>
<clipPath id="k-out"><path d="M0 0 L256 0 L256 256 L0 256 Z M121 106.6 L143.6 105.8 Q150.8 108.4 152.8 118.6 L152.6 132 L151.2 146 L152.8 160 L155.2 174 L157.2 186 L158.6 192.5 L156.2 196 Q153 198.2 150.4 194.4 L146.2 196.4 L142.6 195.2 Q139.2 199.2 134.2 194.8 L131.6 197 L128.4 194.6 Q124.4 198.8 119.6 194.6 L114 196.6 L110 195 L104 197.4 Q96 199.6 86.4 198.8 L92.6 186 L96.6 172 L99.8 158 L102.4 144 L102.6 128 Q103.2 117 110.6 112.4 L116 109.4 Z" clip-rule="evenodd"/></clipPath>
<clipPath id="k-hem"><path d="M142 184 L230 184 L230 236 L142 236 Z"/></clipPath>
</defs>
<g id="silhouette" fill="#0b0907">
<g><animateTransform attributeName="transform" type="translate" dur="1s" repeatCount="indefinite" calcMode="discrete" keyTimes="0.0000;0.0833;0.1667;0.2500;0.3333;0.4167;0.5000;0.5833;0.6667;0.7500;0.8333;0.9167" values="0 2.07;0 2.79;0 0.65;0 0.01;0 0.24;0 0.61;0 2.07;0 2.79;0 0.65;0 0.01;0 0.24;0 0.61"/>
<g id="silhouette-legs"><g><animateTransform attributeName="transform" type="rotate" dur="1s" repeatCount="indefinite" calcMode="discrete" keyTimes="0.0000;0.0833;0.1667;0.2500;0.3333;0.4167;0.5000;0.5833;0.6667;0.7500;0.8333;0.9167" values="7.22 119 186;-2 119 186;-26 119 186;-26 119 186;-27 119 186;-28 119 186;-24.56 119 186;-29.59 119 186;-14.04 119 186;-1.48 119 186;6.08 119 186;10.75 119 186"/><path d="M114.1 180 L123.8 180 L124 207.5 L114.4 207.5 Z"/><circle cx="119" cy="207.5" r="4.9"/><g><animateTransform attributeName="transform" type="rotate" dur="1s" repeatCount="indefinite" calcMode="discrete" keyTimes="0.0000;0.0833;0.1667;0.2500;0.3333;0.4167;0.5000;0.5833;0.6667;0.7500;0.8333;0.9167" values="23.73 119 207.5;36 119 207.5;44 119 207.5;44 119 207.5;24 119 207.5;10 119 207.5;12 119 207.5;34 119 207.5;16 119 207.5;3 119 207.5;0 119 207.5;3 119 207.5"/><path d="M114.6 206.5 L123.6 206.5 L123.1 228.5 L114.9 228.5 Z"/><circle cx="119" cy="228.5" r="4.2"/><g><animateTransform attributeName="transform" type="rotate" dur="1s" repeatCount="indefinite" calcMode="discrete" keyTimes="0.0000;0.0833;0.1667;0.2500;0.3333;0.4167;0.5000;0.5833;0.6667;0.7500;0.8333;0.9167" values="-27.94 119 228.5;-33 119 228.5;-20 119 228.5;-20 119 228.5;-3 119 228.5;9 119 228.5;7.56 119 228.5;-5.41 119 228.5;-1.96 119 228.5;-1.52 119 228.5;-6.08 119 228.5;-12.75 119 228.5"/><path d="M114.7 225.5 L123.3 225.5 L129.4 229.1 L137.6 231.5 Q141.8 232.9 139.4 234.5 L121.4 234.5 L120.4 232.7 L117.4 232.7 L116.4 234.5 L114.4 234.5 L114.1 228.5 Z"/></g></g></g><g><animateTransform attributeName="transform" type="rotate" dur="1s" repeatCount="indefinite" calcMode="discrete" keyTimes="0.0000;0.0833;0.1667;0.2500;0.3333;0.4167;0.5000;0.5833;0.6667;0.7500;0.8333;0.9167" values="-24.56 128.5 186;-29.59 128.5 186;-14.04 128.5 186;-1.48 128.5 186;6.08 128.5 186;10.75 128.5 186;7.22 128.5 186;-2 128.5 186;-26 128.5 186;-26 128.5 186;-27 128.5 186;-28 128.5 186"/><path d="M123.6 180 L133.3 180 L133.5 207.5 L123.9 207.5 Z"/><circle cx="128.5" cy="207.5" r="4.9"/><g><animateTransform attributeName="transform" type="rotate" dur="1s" repeatCount="indefinite" calcMode="discrete" keyTimes="0.0000;0.0833;0.1667;0.2500;0.3333;0.4167;0.5000;0.5833;0.6667;0.7500;0.8333;0.9167" values="12 128.5 207.5;34 128.5 207.5;16 128.5 207.5;3 128.5 207.5;0 128.5 207.5;3 128.5 207.5;23.73 128.5 207.5;36 128.5 207.5;44 128.5 207.5;44 128.5 207.5;24 128.5 207.5;10 128.5 207.5"/><path d="M124.1 206.5 L133.1 206.5 L132.6 228.5 L124.4 228.5 Z"/><circle cx="128.5" cy="228.5" r="4.2"/><g><animateTransform attributeName="transform" type="rotate" dur="1s" repeatCount="indefinite" calcMode="discrete" keyTimes="0.0000;0.0833;0.1667;0.2500;0.3333;0.4167;0.5000;0.5833;0.6667;0.7500;0.8333;0.9167" values="7.56 128.5 228.5;-5.41 128.5 228.5;-1.96 128.5 228.5;-1.52 128.5 228.5;-6.08 128.5 228.5;-12.75 128.5 228.5;-27.94 128.5 228.5;-33 128.5 228.5;-20 128.5 228.5;-20 128.5 228.5;-3 128.5 228.5;9 128.5 228.5"/><path d="M124.2 225.5 L132.8 225.5 L138.9 229.1 L147.1 231.5 Q151.3 232.9 148.9 234.5 L130.9 234.5 L129.9 232.7 L126.9 232.7 L125.9 234.5 L123.9 234.5 L123.6 228.5 Z"/></g></g></g></g>
<g transform="translate(128 188)"><g><animateTransform attributeName="transform" type="scale" dur="1s" repeatCount="indefinite" calcMode="discrete" keyTimes="0.0000;0.0833;0.1667;0.2500;0.3333;0.4167;0.5000;0.5833;0.6667;0.7500;0.8333;0.9167" values="1.03 0.97;1 1;1 1;1 1;1 1;1 1;1.03 0.97;1 1;1 1;1 1;1 1;1 1"/><g transform="translate(-128 -188)">
<g id="silhouette-arm-back"><animateTransform attributeName="transform" type="rotate" dur="1s" repeatCount="indefinite" calcMode="discrete" keyTimes="0.0000;0.0833;0.1667;0.2500;0.3333;0.4167;0.5000;0.5833;0.6667;0.7500;0.8333;0.9167" values="20.39 112 113;22 112 113;20.39 112 113;16 112 113;10 112 113;4 112 113;-0.39 112 113;-2 112 113;-0.39 112 113;4 112 113;10 112 113;16 112 113"/><path d="M108 112 L118 116 L115 164 L112 175 L105 173 L104.5 163 L106 138 Z"/></g>
<g id="silhouette-coat-rear"><animateTransform attributeName="transform" type="rotate" dur="1s" repeatCount="indefinite" calcMode="discrete" keyTimes="0.0000;0.0833;0.1667;0.2500;0.3333;0.4167;0.5000;0.5833;0.6667;0.7500;0.8333;0.9167" values="-3 106 186;-1 106 186;6 106 186;4 106 186;0 106 186;-3 106 186;-3 106 186;-1 106 186;6 106 186;4 106 186;0 106 186;-3 106 186"/><g clip-path="url(#k-rear)"><use href="#s-torso"/><path d="M91.4 188.6 Q96.6 188.8 96 193.2 Q94.6 196 91.2 195 Q94 193.6 93.4 191.4 Q92.8 190 91.4 188.6 Z"/></g></g>
<g id="silhouette-torso"><g clip-path="url(#k-main)"><use href="#s-torso"/><use href="#s-scarf"/></g></g>
<g id="silhouette-coat-hem"><animateTransform attributeName="transform" type="rotate" dur="1s" repeatCount="indefinite" calcMode="discrete" keyTimes="0.0000;0.0833;0.1667;0.2500;0.3333;0.4167;0.5000;0.5833;0.6667;0.7500;0.8333;0.9167" values="1 150 186;1 150 186;-2 150 186;-1 150 186;0 150 186;2 150 186;1 150 186;1 150 186;-2 150 186;-1 150 186;0 150 186;2 150 186"/><g clip-path="url(#k-hem)"><use href="#s-torso"/></g></g>
<g id="silhouette-scarf-tail"><animateTransform attributeName="transform" type="rotate" dur="1s" repeatCount="indefinite" calcMode="discrete" keyTimes="0.0000;0.0833;0.1667;0.2500;0.3333;0.4167;0.5000;0.5833;0.6667;0.7500;0.8333;0.9167" values="2.56 112 106;7.22 112 106;9.52 112 106;2.69 112 106;0.65 112 106;1.36 112 106;2.56 112 106;7.22 112 106;9.52 112 106;2.69 112 106;0.65 112 106;1.36 112 106"/><use href="#s-tail"/><g id="silhouette-scarf-tip"><animateTransform attributeName="transform" type="rotate" dur="1s" repeatCount="indefinite" calcMode="discrete" keyTimes="0.0000;0.0833;0.1667;0.2500;0.3333;0.4167;0.5000;0.5833;0.6667;0.7500;0.8333;0.9167" values="-4.78 95 140;-2.61 95 140;5.84 95 140;10 95 140;-2.37 95 140;-6.08 95 140;-4.78 95 140;-2.61 95 140;5.84 95 140;10 95 140;-2.37 95 140;-6.08 95 140"/><use href="#s-tip"/></g></g>
<g id="silhouette-head"><animateTransform attributeName="transform" type="rotate" dur="1s" repeatCount="indefinite" calcMode="discrete" keyTimes="0.0000;0.0833;0.1667;0.2500;0.3333;0.4167;0.5000;0.5833;0.6667;0.7500;0.8333;0.9167" values="1 132 104;1.5 132 104;1 132 104;0 132 104;-0.5 132 104;0.5 132 104;1 132 104;1.5 132 104;1 132 104;0 132 104;-0.5 132 104;0.5 132 104"/><use href="#s-head"/><use href="#s-cap"/></g>
<g id="silhouette-arm-front"><animateTransform attributeName="transform" type="rotate" dur="1s" repeatCount="indefinite" calcMode="discrete" keyTimes="0.0000;0.0833;0.1667;0.2500;0.3333;0.4167;0.5000;0.5833;0.6667;0.7500;0.8333;0.9167" values="3.46 142 113;4 142 113;3.46 142 113;2 142 113;0 142 113;-2 142 113;-3.46 142 113;-4 142 113;-3.46 142 113;-2 142 113;0 142 113;2 142 113"/><use href="#s-arm"/>
<g id="silhouette-lantern"><animateTransform attributeName="transform" type="rotate" dur="1s" repeatCount="indefinite" calcMode="discrete" keyTimes="0.0000;0.0833;0.1667;0.2500;0.3333;0.4167;0.5000;0.5833;0.6667;0.7500;0.8333;0.9167" values="-1.96 186 149;2.49 186 149;6.21 186 149;7.78 186 149;7.12 186 149;4.73 186 149;0.97 186 149;-3.29 186 149;-6.54 186 149;-7.84 186 149;-7.39 186 149;-5.47 186 149"/><path d="M184.6 147 L187.4 147 L188 158 L184 158 Z"/><path d="M176 166 L181 159.5 L186 156.5 L191 159.5 L196 166 L194 167 L194 185 L197 187.5 L195 191 L187.6 192 L189 195.2 L183 195.2 L184.4 192 L177 191 L175 187.5 L178 185 L178 167 Z M180.2 168.6 L184.6 168.1 L184.6 183.4 L180.2 182.9 Z M187.4 168.1 L191.8 168.6 L191.8 182.9 L187.4 183.4 Z" fill-rule="evenodd"/></g>
</g>
</g></g></g>
</g>
</g>
<g id="colour">
<g><animateTransform attributeName="transform" type="translate" dur="1s" repeatCount="indefinite" calcMode="discrete" keyTimes="0.0000;0.0833;0.1667;0.2500;0.3333;0.4167;0.5000;0.5833;0.6667;0.7500;0.8333;0.9167" values="0 2.07;0 2.79;0 0.65;0 0.01;0 0.24;0 0.61;0 2.07;0 2.79;0 0.65;0 0.01;0 0.24;0 0.61"/>
<g id="colour-legs"/>
<g transform="translate(128 188)"><g><animateTransform attributeName="transform" type="scale" dur="1s" repeatCount="indefinite" calcMode="discrete" keyTimes="0.0000;0.0833;0.1667;0.2500;0.3333;0.4167;0.5000;0.5833;0.6667;0.7500;0.8333;0.9167" values="1.03 0.97;1 1;1 1;1 1;1 1;1 1;1.03 0.97;1 1;1 1;1 1;1 1;1 1"/><g transform="translate(-128 -188)">
<g clip-path="url(#k-out)"><g id="colour-arm-back"><animateTransform attributeName="transform" type="rotate" dur="1s" repeatCount="indefinite" calcMode="discrete" keyTimes="0.0000;0.0833;0.1667;0.2500;0.3333;0.4167;0.5000;0.5833;0.6667;0.7500;0.8333;0.9167" values="20.39 112 113;22 112 113;20.39 112 113;16 112 113;10 112 113;4 112 113;-0.39 112 113;-2 112 113;-0.39 112 113;4 112 113;10 112 113;16 112 113"/><path d="M107.4 166.6 Q110.6 165.6 112.8 167 L111.2 171.4 Q108.8 172.2 107.6 170.8 Z" fill="#e9dfc6"/></g></g>
<g id="colour-coat-rear"><animateTransform attributeName="transform" type="rotate" dur="1s" repeatCount="indefinite" calcMode="discrete" keyTimes="0.0000;0.0833;0.1667;0.2500;0.3333;0.4167;0.5000;0.5833;0.6667;0.7500;0.8333;0.9167" values="-3 106 186;-1 106 186;6 106 186;4 106 186;0 106 186;-3 106 186;-3 106 186;-1 106 186;6 106 186;4 106 186;0 106 186;-3 106 186"/><g clip-path="url(#k-rear)"></g></g>
<g id="colour-torso"><g clip-path="url(#k-main)"><path d="M125 104 L200 104 L200 205 L121 205 L122 180 L123.5 150 L125 125 Z" fill="#3b3548" clip-path="url(#c-torso)"/><path d="M143.6 105.8 Q150.8 108.4 152.8 118.6 L152.6 132 L151.2 146 L152.8 160 L155.2 174 L157.2 186 L158.6 192.5 L156.2 196" fill="none" stroke="#f2a94a" stroke-width="3.6" stroke-linejoin="round" stroke-linecap="round" clip-path="url(#c-torso)"/><path d="M136.08 140.2 Q136.38 137.36 139.3 137.46 Q142.12 137.96 141.82 140.4 Q141.52 142.74 138.8 142.54 Q135.98 141.94 136.08 140.2 Z M137.42 156.2 Q137.72 152.93 140.3 153.03 Q142.78 153.53 142.48 156.4 Q142.18 159.17 139.8 158.97 Q137.32 158.37 137.42 156.2 Z M138.3 172.2 Q138.6 169.38 141.3 169.48 Q143.9 169.98 143.6 172.4 Q143.3 174.72 140.8 174.52 Q138.2 173.92 138.3 172.2 Z" fill="#f2a94a"/><use href="#s-scarf" fill="#0b0907"/><path d="M120.2 98 L200 98 L200 125 L119.6 125 Z" fill="#b4574a" clip-path="url(#c-scarf)"/><path d="M149.6 102.2 L151.8 106.4 L156.4 103 Q162.4 103.4 161.4 108.8 L158.6 111.8 L162 117.2 Q159.2 121.2 154.4 117.6" fill="none" stroke="#f2a94a" stroke-width="3.6" stroke-linejoin="round" stroke-linecap="round" clip-path="url(#c-scarf)"/></g></g>
<g id="colour-coat-hem"><animateTransform attributeName="transform" type="rotate" dur="1s" repeatCount="indefinite" calcMode="discrete" keyTimes="0.0000;0.0833;0.1667;0.2500;0.3333;0.4167;0.5000;0.5833;0.6667;0.7500;0.8333;0.9167" values="1 150 186;1 150 186;-2 150 186;-1 150 186;0 150 186;2 150 186;1 150 186;1 150 186;-2 150 186;-1 150 186;0 150 186;2 150 186"/><g clip-path="url(#k-hem)"><path d="M125 104 L200 104 L200 205 L121 205 L122 180 L123.5 150 L125 125 Z" fill="#3b3548" clip-path="url(#c-torso)"/><path d="M143.6 105.8 Q150.8 108.4 152.8 118.6 L152.6 132 L151.2 146 L152.8 160 L155.2 174 L157.2 186 L158.6 192.5 L156.2 196" fill="none" stroke="#f2a94a" stroke-width="3.6" stroke-linejoin="round" stroke-linecap="round" clip-path="url(#c-torso)"/><path d="M136.08 140.2 Q136.38 137.36 139.3 137.46 Q142.12 137.96 141.82 140.4 Q141.52 142.74 138.8 142.54 Q135.98 141.94 136.08 140.2 Z M137.42 156.2 Q137.72 152.93 140.3 153.03 Q142.78 153.53 142.48 156.4 Q142.18 159.17 139.8 158.97 Q137.32 158.37 137.42 156.2 Z M138.3 172.2 Q138.6 169.38 141.3 169.48 Q143.9 169.98 143.6 172.4 Q143.3 174.72 140.8 174.52 Q138.2 173.92 138.3 172.2 Z" fill="#f2a94a"/></g></g>
<g id="colour-scarf-tail"><animateTransform attributeName="transform" type="rotate" dur="1s" repeatCount="indefinite" calcMode="discrete" keyTimes="0.0000;0.0833;0.1667;0.2500;0.3333;0.4167;0.5000;0.5833;0.6667;0.7500;0.8333;0.9167" values="2.56 112 106;7.22 112 106;9.52 112 106;2.69 112 106;0.65 112 106;1.36 112 106;2.56 112 106;7.22 112 106;9.52 112 106;2.69 112 106;0.65 112 106;1.36 112 106"/><path d="M112.4 107.2 L101.8 115.6 L94.6 130.4 L91.8 140.8 L97.6 140.8 L99.8 131.6 L110.6 118.6 Z" fill="#b4574a"/><g id="colour-scarf-tip"><animateTransform attributeName="transform" type="rotate" dur="1s" repeatCount="indefinite" calcMode="discrete" keyTimes="0.0000;0.0833;0.1667;0.2500;0.3333;0.4167;0.5000;0.5833;0.6667;0.7500;0.8333;0.9167" values="-4.78 95 140;-2.61 95 140;5.84 95 140;10 95 140;-2.37 95 140;-6.08 95 140;-4.78 95 140;-2.61 95 140;5.84 95 140;10 95 140;-2.37 95 140;-6.08 95 140"/><path d="M92.2 141.8 L87.4 154.4 L82.6 164.4 L85.4 162.2 L87 166 L89.8 156 L96.6 142 Z M89.9 147.4 L91.3 149.8 L89.6 152.2 L88.4 149.8 Z" fill="#b4574a" fill-rule="evenodd"/></g></g>
<g id="colour-head"><animateTransform attributeName="transform" type="rotate" dur="1s" repeatCount="indefinite" calcMode="discrete" keyTimes="0.0000;0.0833;0.1667;0.2500;0.3333;0.4167;0.5000;0.5833;0.6667;0.7500;0.8333;0.9167" values="1 132 104;1.5 132 104;1 132 104;0 132 104;-0.5 132 104;0.5 132 104;1 132 104;1.5 132 104;1 132 104;0 132 104;-0.5 132 104;0.5 132 104"/><path d="M140 73.5 Q145.5 70.8 150 75 Q145 78.4 140 73.5 Z" fill="#f2a94a"/><path d="M148.2 62.6 L150.2 69 L154 75 L160 79 L171.8 83.4 Q175 85 171.8 86.9 L160.4 88.2 L155.2 90 L157.4 92.6 Q156.6 97.4 151.6 99.6 L149.6 104.6" fill="none" stroke="#f2a94a" stroke-width="3.6" stroke-linejoin="round" stroke-linecap="round" clip-path="url(#c-head)"/><path d="M157.6 59.4 L164.6 60.8 L168.4 63.2 L167.2 65.4" fill="none" stroke="#f2a94a" stroke-width="3.6" stroke-linejoin="round" stroke-linecap="round" clip-path="url(#c-cap)"/></g>
<g id="colour-arm-front"><animateTransform attributeName="transform" type="rotate" dur="1s" repeatCount="indefinite" calcMode="discrete" keyTimes="0.0000;0.0833;0.1667;0.2500;0.3333;0.4167;0.5000;0.5833;0.6667;0.7500;0.8333;0.9167" values="3.46 142 113;4 142 113;3.46 142 113;2 142 113;0 142 113;-2 142 113;-3.46 142 113;-4 142 113;-3.46 142 113;-2 142 113;0 142 113;2 142 113"/><use href="#s-arm" fill="#0b0907"/><path d="M147 106 L162 106 L159 130 L167 136.4 L182.6 138.6 L182.6 144.2 L166 143.8 L157.4 141.6 L151.6 134.4 L146.4 122.4 Z" fill="#3b3548" clip-path="url(#c-arm)"/><path d="M183.6 142.6 Q186.4 141 189.2 142.8 Q190.8 145.2 189.4 147.6 L187.8 146.8 L185 147.6 Q183.4 147.8 183 146 Z" fill="#e9dfc6"/><path d="M150.8 144.8 Q154 149.2 162 148.4 L172 148.2 L181.2 148.2" fill="none" stroke="#f2a94a" stroke-width="3.6" stroke-linejoin="round" stroke-linecap="round" clip-path="url(#c-arm)"/>
<g id="colour-lantern"><animateTransform attributeName="transform" type="rotate" dur="1s" repeatCount="indefinite" calcMode="discrete" keyTimes="0.0000;0.0833;0.1667;0.2500;0.3333;0.4167;0.5000;0.5833;0.6667;0.7500;0.8333;0.9167" values="-1.96 186 149;2.49 186 149;6.21 186 149;7.78 186 149;7.12 186 149;4.73 186 149;0.97 186 149;-3.29 186 149;-6.54 186 149;-7.84 186 149;-7.39 186 149;-5.47 186 149"/><circle cx="186" cy="177" r="30" fill="url(#halo)" style="mix-blend-mode:screen"><animate attributeName="opacity" dur="1.2s" repeatCount="indefinite" calcMode="spline" keyTimes="0;0.3;0.62;0.72;1" keySplines=".45 0 .55 1;.45 0 .55 1;.45 0 .55 1;.45 0 .55 1" values="0.6;0.72;0.62;0.42;0.6"/></circle><path d="M179.3 167.8 L185.4 167.3 L185.4 184.2 L179.3 183.7 Z M186.6 167.3 L192.7 167.8 L192.7 183.7 L186.6 184.2 Z" fill="#f2a94a"><animate attributeName="fill" dur="0.8s" repeatCount="indefinite" calcMode="spline" keyTimes="0;0.4;1" keySplines=".45 0 .55 1;.45 0 .55 1" values="#f2a94a;#ffd9a0;#f2a94a"/></path><g transform="translate(186 182)"><g><animateTransform attributeName="transform" type="scale" dur="1.2s" repeatCount="indefinite" calcMode="spline" keyTimes="0;0.25;0.5;0.62;0.7;0.84;1" keySplines=".45 0 .55 1;.45 0 .55 1;.45 0 .55 1;.45 0 .55 1;.45 0 .55 1;.45 0 .55 1" values="1 1;1.05 1.09;0.97 0.96;1.02 1.05;0.86 0.74;1.02 1.04;1 1"/><g><animateTransform attributeName="transform" type="skewX" dur="0.8s" repeatCount="indefinite" calcMode="spline" keyTimes="0;0.5;1" keySplines=".45 0 .55 1;.45 0 .55 1" values="-5;5;-5"/><path d="M0 0 C-4.2 -1 -4.4 -6 -1.8 -9 C-0.8 -10.5 -0.2 -12.5 0 -14 C0.8 -11 4.4 -7 3.6 -3.2 C3.2 -0.8 1.8 0 0 0 Z" fill="#f2a94a"/><g><animateTransform attributeName="transform" type="scale" dur="0.48s" repeatCount="indefinite" calcMode="spline" keyTimes="0;0.5;1" keySplines=".45 0 .55 1;.45 0 .55 1" values="1 1;0.94 1.1;1 1"/><path d="M0 -0.6 C-2 -1 -2 -4 -0.6 -6.2 L0 -8.5 C0.6 -6 2 -4 1.6 -2 C1.4 -0.8 0.8 -0.6 0 -0.6 Z" fill="#fff0c8"/></g></g></g></g></g>
</g>
</g></g></g>
</g>
</g>
</svg>
